#!OML:ASF G:\ViconDB\ViconDB\414\test\team2\shane.ASF
:FULLY-SPECIFIED
:DEGREES
461
root 16.2626 16.8518 -16.1082 -193.876 -39.3346 -171.837
lowerback 10.5922 0.96595 3.24777
upperback 5.0918 1.22356 2.42452
thorax -0.610725 0.462666 0.552858
lowerneck -17.0715 -3.96981 -7.01672
upperneck 21.4397 -5.61522 6.68757
head 10.0331 -2.54442 2.72746
rclavicle -2.64042e-014 -1.37658e-014
rhumerus -17.2339 -13.3312 -83.1343
rradius 24.3033
rwrist 45.7927
rhand -31.6597 -17.4247
rfingers 7.12502
rthumb -4.92016 -47.3476
lclavicle -2.64042e-014 -1.37658e-014
lhumerus -37.2144 -15.3118 92.5839
lradius 16.1062
lwrist -23.6594
lhand -36.5507 8.16154
lfingers 7.12502
lthumb -9.64112 37.9209
rfemur 9.43982 -18.2075 17.4982
rtibia 21.3836
rfoot -21.8988 4.75321
rtoes -6.15788
lfemur -8.35321 2.92198 -5.46614
ltibia 50.7094
lfoot -23.6384 -17.9128
ltoes -18.3843
462
root 16.1815 16.8558 -16.2136 -193.681 -39.4411 -172.198
lowerback 10.5879 1.24931 3.40726
upperback 5.15186 1.61292 2.14852
thorax -0.527254 0.666758 0.137075
lowerneck -17.1454 -4.03263 -6.62603
upperneck 21.5216 -5.78289 6.55957
head 10.0731 -2.60284 2.59221
rclavicle -1.11003e-013 4.58199e-014
rhumerus -16.3972 -12.9197 -83.7654
rradius 25.1625
rwrist 44.82
rhand -31.8752 -17.3374
rfingers 7.12502
rthumb -5.12818 -47.2554
lclavicle -1.11003e-013 4.58199e-014
lhumerus -38.3115 -16.5582 92.877
lradius 16.7544
lwrist -21.3851
lhand -36.3427 8.46341
lfingers 7.12502
lthumb -9.44044 38.232
rfemur 10.2644 -18.1981 16.992
rtibia 20.8361
rfoot -21.9195 4.85295
rtoes -6.16744
lfemur -9.04134 3.1738 -6.04389
ltibia 48.937
lfoot -23.9686 -17.8499
ltoes -18.4416
463
root 16.1208 16.8606 -16.3178 -193.582 -39.8993 -172.169
lowerback 10.686 1.31631 3.39787
upperback 5.03037 1.72305 2.07418
thorax -0.703209 0.725219 0.0500684
lowerneck -17.0252 -4.00465 -6.47344
upperneck 21.6296 -5.79755 6.51066
head 10.0835 -2.60813 2.54921
rclavicle -1.31571e-014 -1.67973e-014
rhumerus -15.7652 -11.057 -84.482
rradius 26.2966
rwrist 42.4386
rhand -31.8184 -17.5503
rfingers 7.12502
rthumb -5.07337 -47.4695
lclavicle -1.31571e-014 -1.67973e-014
lhumerus -38.9565 -15.6732 92.0899
lradius 16.7764
lwrist -21.4965
lhand -36.188 8.1136
lfingers 7.12502
lthumb -9.29117 37.8889
rfemur 10.91 -17.7969 17.1411
rtibia 20.0903
rfoot -21.6676 4.1716
rtoes -5.8371
lfemur -9.97568 3.47201 -6.25542
ltibia 46.9279
lfoot -24.1906 -18.0912
ltoes -18.4616
464
root 16.0372 16.8501 -16.4249 -193.241 -39.9687 -172.412
lowerback 10.5933 1.53378 3.41923
upperback 4.88827 2.0322 1.93812
thorax -0.788055 0.887873 -0.135936
lowerneck -16.7881 -4.00951 -6.49679
upperneck 21.6346 -5.84648 6.61204
head 10.0482 -2.62917 2.58473
rclavicle -3.10104e-014 -1.37161e-014
rhumerus -15.2509 -9.82082 -84.8248
rradius 27.1504
rwrist 41.7466
rhand -31.8243 -17.3372
rfingers 7.12502
rthumb -5.07906 -47.2564
lclavicle -3.10104e-014 -1.37161e-014
lhumerus -39.6325 -14.6201 91.2451
lradius 16.7125
lwrist -22.0948
lhand -36.3614 7.73322
lfingers 7.12502
lthumb -9.45857 37.501
rfemur 11.6184 -17.7761 16.8828
rtibia 19.3376
rfoot -21.6625 3.82561
rtoes -6.78582
lfemur -10.7988 4.02601 -6.72887
ltibia 44.8293
lfoot -24.3739 -18.1948
ltoes -18.2447
465
root 15.949 16.8699 -16.5394 -193.062 -40.1334 -172.518
lowerback 10.3729 1.70306 3.50975
upperback 4.86433 2.26397 1.8386
thorax -0.678683 1.01187 -0.308221
lowerneck -16.6629 -4.04856 -6.51833
upperneck 21.6672 -5.92346 6.66429
head 10.0444 -2.66477 2.59752
rclavicle -6.30272e-014 -2.38542e-014
rhumerus -14.6423 -9.0201 -85.193
rradius 28.0604
rwrist 41.1588
rhand -32.1711 -17.3715
rfingers 7.12502
rthumb -5.41393 -47.2823
lclavicle -6.30272e-014 -2.38542e-014
lhumerus -40.2773 -14.0261 90.7648
lradius 16.8271
lwrist -21.6906
lhand -36.4476 7.73248
lfingers 7.12502
lthumb -9.54166 37.4964
rfemur 12.4092 -17.38 16.8069
rtibia 18.4962
rfoot -21.4396 3.4803
rtoes -6.64688
lfemur -11.4093 4.62243 -7.11138
ltibia 42.4867
lfoot -24.5156 -18.5753
ltoes -18
466
root 15.8645 16.8613 -16.6459 -193.027 -40.5331 -172.493
lowerback 10.463 1.79916 3.65339
upperback 4.77412 2.42066 1.72263
thorax -0.80519 1.09498 -0.529065
lowerneck -16.8028 -4.04969 -6.24716
upperneck 21.8059 -5.97362 6.55072
head 10.1117 -2.67518 2.50388
rclavicle -2.84635e-014 1.85864e-014
rhumerus -14.1136 -7.95382 -85.5804
rradius 28.9496
rwrist 40.3534
rhand -32.275 -17.5807
rfingers 7.12502
rthumb -5.5143 -47.489
lclavicle -2.84635e-014 1.85864e-014
lhumerus -40.8195 -13.314 89.9888
lradius 16.857
lwrist -21.7895
lhand -36.372 7.15311
lfingers 7.12502
lthumb -9.46872 36.9204
rfemur 13.3475 -17.4134 16.711
rtibia 17.5357
rfoot -21.1569 3.15105
rtoes -6.77087
lfemur -12.0663 5.12993 -7.45475
ltibia 40.1811
lfoot -24.5751 -18.9636
ltoes -18.1981
467
root 15.7754 16.8754 -16.747 -192.723 -40.3641 -172.68
lowerback 10.4751 2.04995 3.74705
upperback 4.63896 2.77959 1.63369
thorax -0.930533 1.2787 -0.71431
lowerneck -16.6266 -4.07731 -6.30022
upperneck 21.7752 -6.01038 6.56116
head 10.0722 -2.69989 2.51323
rclavicle 3.79927e-014 1.35174e-014
rhumerus -13.7528 -6.28365 -85.8678
rradius 30.0093
rwrist 39.029
rhand -32.4909 -17.4621
rfingers 7.12502
rthumb -5.72268 -47.3648
lclavicle 3.79927e-014 1.35174e-014
lhumerus -41.3015 -12.1246 89.119
lradius 16.7843
lwrist -22.2006
lhand -36.5535 7.31854
lfingers 7.12502
lthumb -9.64388 37.0778
rfemur 14.1445 -17.5636 16.3606
rtibia 16.3912
rfoot -20.7232 3.55367
rtoes -7.11146
lfemur -12.6307 6.18455 -7.92514
ltibia 37.7734
lfoot -24.5649 -19.0916
ltoes -18.2091
